<svg width="144" height="145" viewBox="0 0 144 145" fill="none" xmlns="http://www.w3.org/2000/svg">
<path d="M110.214 90.7013L67.4216 58.0152V48.5216L102.689 75.4591V27.752L86.7652 15.3739L86.749 26.7991L79.2251 20.8415L79.2806 0L110.214 24.045V90.7013Z" fill="url(#paint0_linear_588_2610)"/>
<path d="M64.3963 113.287L33.7804 89.591V22.8097L53.1984 37.5782L53.197 47.0556L41.3056 38.0112V85.8745L56.8617 97.9146L56.859 86.5925L64.3828 92.9085L64.3963 113.287Z" fill="url(#paint1_linear_588_2610)"/>
<path d="M87.2154 102.313L56.7211 78.1088V11.8922L87.2154 35.1797V56.6836L79.6915 50.7273V38.9261L64.2463 27.1317V74.4492L79.6915 86.7079V74.4452L87.2154 80.2847V102.313Z" fill="url(#paint2_linear_588_2610)"/>
<path d="M52.4793 120.145C54.1665 120.145 55.5342 118.771 55.5342 117.077C55.5342 115.383 54.1665 114.009 52.4793 114.009C50.792 114.009 49.4243 115.383 49.4243 117.077C49.4243 118.771 50.792 120.145 52.4793 120.145Z" fill="url(#paint3_linear_588_2610)"/>
<path d="M140.945 119.404C142.632 119.404 144 118.03 144 116.336C144 114.642 142.632 113.268 140.945 113.268C139.258 113.268 137.89 114.642 137.89 116.336C137.89 118.03 139.258 119.404 140.945 119.404Z" fill="url(#paint4_linear_588_2610)"/>
<path d="M105.272 117.1C105.272 116.287 104.951 115.508 104.378 114.933C103.806 114.358 103.029 114.035 102.22 114.035C101.819 114.035 101.422 114.114 101.052 114.268C100.682 114.422 100.345 114.648 100.062 114.933C99.7782 115.217 99.5533 115.555 99.3999 115.927C99.2466 116.299 99.1676 116.698 99.1676 117.1V126.366C99.1581 126.465 98.6945 130.723 94.0972 130.787H93.8958C89.2444 130.723 88.824 126.362 88.824 126.362V117.1C88.824 116.287 88.5024 115.508 87.93 114.933C87.3576 114.358 86.5812 114.035 85.7717 114.035C84.9622 114.035 84.1858 114.358 83.6134 114.933C83.041 115.508 82.7194 116.287 82.7194 117.1V124.999C82.7194 129.342 84.4997 131.684 84.4997 131.684C87.5411 136.622 92.6427 136.854 93.7714 136.842H94.208C95.7885 136.837 97.3504 136.499 98.7932 135.851C98.4883 136.6 98.005 137.261 97.3858 137.778C96.7667 138.295 96.0305 138.651 95.2421 138.816C95.038 138.858 94.915 138.87 94.915 138.87H86.7044C85.1418 138.87 83.7089 140.143 83.5954 141.708C83.5643 142.129 83.62 142.551 83.7589 142.949C83.8978 143.347 84.117 143.712 84.4027 144.021C84.6884 144.33 85.0345 144.576 85.4194 144.745C85.8043 144.913 86.2197 145 86.6395 145H93.5551C97.8807 145 100.211 143.212 100.211 143.212C102.172 142.019 103.691 140.215 104.537 138.075C104.567 138 104.595 137.927 104.622 137.853C105.058 136.67 105.278 135.418 105.271 134.157V117.1H105.272Z" fill="url(#paint5_linear_588_2610)"/>
<path d="M74.1155 133.796L79.4685 128.421C79.752 128.136 79.977 127.798 80.1304 127.426C80.2839 127.054 80.3629 126.656 80.3629 126.253C80.3629 125.85 80.2839 125.452 80.1304 125.08C79.977 124.708 79.752 124.37 79.4685 124.085C79.185 123.8 78.8485 123.575 78.4781 123.42C78.1077 123.266 77.7106 123.187 77.3097 123.187C76.9088 123.187 76.5117 123.266 76.1413 123.42C75.7709 123.575 75.4344 123.8 75.1509 124.085L68.4949 130.769H65.7914V117.279C65.791 116.466 65.4691 115.687 64.8965 115.112C64.3239 114.537 63.5474 114.214 62.7378 114.214C62.3365 114.213 61.939 114.292 61.568 114.446C61.1971 114.6 60.86 114.825 60.576 115.11C60.292 115.395 60.0667 115.733 59.9129 116.105C59.7592 116.477 59.6801 116.876 59.6801 117.279V140.928C59.6801 141.741 60.0017 142.52 60.5741 143.095C61.1465 143.67 61.9228 143.993 62.7323 143.993C63.542 143.993 64.3185 143.67 64.8911 143.095C65.4637 142.52 65.7856 141.741 65.786 140.928V136.903H68.4273L75.0874 143.032C76.3283 144.278 78.3019 144.317 79.4941 143.12C80.6864 141.923 80.6458 139.942 79.4049 138.696L74.1155 133.796Z" fill="url(#paint6_linear_588_2610)"/>
<path d="M39.0279 132.268C38.8387 128.41 37.2706 126.34 37.2706 126.34C34.2292 121.4 29.1277 121.169 28.0003 121.182H27.5623C26.6039 121.169 22.5608 121.33 19.5261 124.673C16.4995 121.346 12.4889 121.171 11.5048 121.18H11.0682C9.96921 121.165 4.83523 121.377 1.78162 126.338C1.78162 126.338 0 128.68 0 133.022V140.922C-3.93192e-08 141.325 0.0789941 141.724 0.232469 142.096C0.385945 142.468 0.610894 142.805 0.894467 143.09C1.17804 143.375 1.51468 143.6 1.88515 143.754C2.25562 143.908 2.65268 143.988 3.05362 143.987C3.86313 143.987 4.63949 143.664 5.2119 143.09C5.78431 142.515 6.10589 141.735 6.10589 140.922V131.668C6.10589 131.668 6.52628 127.306 11.1763 127.243H11.3804C16.0251 127.301 16.4401 131.668 16.4401 131.668V140.929C16.4401 141.332 16.5191 141.73 16.6725 142.102C16.826 142.474 17.051 142.812 17.3345 143.097C17.6181 143.382 17.9547 143.607 18.3252 143.761C18.6957 143.915 19.0928 143.994 19.4937 143.994H19.5491C19.9501 143.994 20.3471 143.915 20.7176 143.761C21.0881 143.607 21.4247 143.382 21.7083 143.097C21.9918 142.812 22.2168 142.474 22.3703 142.102C22.5237 141.73 22.6027 141.332 22.6027 140.929V131.668C22.6027 131.668 23.0218 127.306 27.6732 127.243H27.8773C32.5273 127.306 32.9477 131.668 32.9477 131.668C32.9477 131.668 32.9964 132.874 33.0032 132.908C33.191 136.765 34.7604 138.835 34.7604 138.835C37.8019 143.774 42.9034 144.005 44.0321 143.993H44.4688C45.5677 144.006 50.7017 143.795 53.7553 138.835C53.7553 138.835 55.5369 136.493 55.5369 132.151V124.251C55.5369 123.848 55.458 123.45 55.3045 123.078C55.151 122.706 54.926 122.368 54.6425 122.083C54.3589 121.798 54.0223 121.573 53.6518 121.419C53.2813 121.265 52.8843 121.186 52.4833 121.186C52.0823 121.185 51.6849 121.263 51.314 121.416C50.9431 121.569 50.6059 121.795 50.3217 122.079C50.0375 122.363 49.8118 122.7 49.6576 123.072C49.5034 123.444 49.4237 123.843 49.4229 124.245V133.507C49.4229 133.507 49.0025 137.868 44.3525 137.932H44.1511C39.4997 137.868 39.0807 133.507 39.0807 133.507" fill="url(#paint7_linear_588_2610)"/>
<path d="M93.9944 128.77C95.6817 128.77 97.0494 127.396 97.0494 125.702C97.0494 124.008 95.6817 122.634 93.9944 122.634C92.3072 122.634 90.9395 124.008 90.9395 125.702C90.9395 127.396 92.3072 128.77 93.9944 128.77Z" fill="url(#paint8_linear_588_2610)"/>
<path d="M28.2409 135.653C29.9281 135.653 31.2959 134.279 31.2959 132.585C31.2959 130.891 29.9281 129.517 28.2409 129.517C26.5537 129.517 25.1859 130.891 25.1859 132.585C25.1859 134.279 26.5537 135.653 28.2409 135.653Z" fill="url(#paint9_linear_588_2610)"/>
<path d="M11.0844 135.653C12.7716 135.653 14.1394 134.279 14.1394 132.585C14.1394 130.891 12.7716 129.517 11.0844 129.517C9.39718 129.517 8.02942 130.891 8.02942 132.585C8.02942 134.279 9.39718 135.653 11.0844 135.653Z" fill="url(#paint10_linear_588_2610)"/>
<path d="M140.946 120.503H140.945C139.259 120.503 137.893 121.875 137.893 123.568V140.183C137.893 141.875 139.259 143.248 140.945 143.248H140.946C142.632 143.248 143.999 141.875 143.999 140.183V123.568C143.999 121.875 142.632 120.503 140.946 120.503Z" fill="url(#paint11_linear_588_2610)"/>
<path d="M123.442 134.912C125.13 134.912 126.497 133.538 126.497 131.844C126.497 130.15 125.13 128.776 123.442 128.776C121.755 128.776 120.388 130.15 120.388 131.844C120.388 133.538 121.755 134.912 123.442 134.912Z" fill="url(#paint12_linear_588_2610)"/>
<path d="M123.442 120.439C120.431 120.439 117.543 121.641 115.413 123.779C113.284 125.917 112.088 128.817 112.088 131.841C112.088 134.865 113.284 137.766 115.413 139.904C117.543 142.042 120.431 143.244 123.442 143.244H134.797V131.841C134.797 128.817 133.601 125.917 131.471 123.779C129.342 121.641 126.454 120.439 123.442 120.439ZM123.442 136.906C122.445 136.906 121.471 136.609 120.642 136.053C119.813 135.497 119.167 134.706 118.785 133.781C118.404 132.856 118.304 131.838 118.499 130.857C118.693 129.875 119.173 128.973 119.878 128.265C120.583 127.557 121.481 127.075 122.459 126.88C123.437 126.684 124.45 126.785 125.371 127.168C126.292 127.551 127.08 128.2 127.634 129.032C128.188 129.864 128.483 130.843 128.483 131.844C128.483 133.186 127.952 134.474 127.006 135.423C126.061 136.372 124.779 136.905 123.442 136.906Z" fill="url(#paint13_linear_588_2610)"/>
<defs>
<linearGradient id="paint0_linear_588_2610" x1="169.573" y1="47.4411" x2="-17.6009" y2="124.264" gradientUnits="userSpaceOnUse">
<stop stop-color="#FA5560"/>
<stop offset="0.393444" stop-color="#B14BF4"/>
<stop offset="1" stop-color="#4D91FF"/>
</linearGradient>
<linearGradient id="paint1_linear_588_2610" x1="169.573" y1="47.4411" x2="-17.6009" y2="124.264" gradientUnits="userSpaceOnUse">
<stop stop-color="#FA5560"/>
<stop offset="0.393444" stop-color="#B14BF4"/>
<stop offset="1" stop-color="#4D91FF"/>
</linearGradient>
<linearGradient id="paint2_linear_588_2610" x1="169.573" y1="47.4411" x2="-17.6009" y2="124.264" gradientUnits="userSpaceOnUse">
<stop stop-color="#FA5560"/>
<stop offset="0.393444" stop-color="#B14BF4"/>
<stop offset="1" stop-color="#4D91FF"/>
</linearGradient>
<linearGradient id="paint3_linear_588_2610" x1="169.573" y1="47.4411" x2="-17.6009" y2="124.264" gradientUnits="userSpaceOnUse">
<stop stop-color="#FA5560"/>
<stop offset="0.393444" stop-color="#B14BF4"/>
<stop offset="1" stop-color="#4D91FF"/>
</linearGradient>
<linearGradient id="paint4_linear_588_2610" x1="169.573" y1="47.4411" x2="-17.6009" y2="124.264" gradientUnits="userSpaceOnUse">
<stop stop-color="#FA5560"/>
<stop offset="0.393444" stop-color="#B14BF4"/>
<stop offset="1" stop-color="#4D91FF"/>
</linearGradient>
<linearGradient id="paint5_linear_588_2610" x1="169.573" y1="47.4411" x2="-17.6009" y2="124.264" gradientUnits="userSpaceOnUse">
<stop stop-color="#FA5560"/>
<stop offset="0.393444" stop-color="#B14BF4"/>
<stop offset="1" stop-color="#4D91FF"/>
</linearGradient>
<linearGradient id="paint6_linear_588_2610" x1="169.573" y1="47.4411" x2="-17.6009" y2="124.264" gradientUnits="userSpaceOnUse">
<stop stop-color="#FA5560"/>
<stop offset="0.393444" stop-color="#B14BF4"/>
<stop offset="1" stop-color="#4D91FF"/>
</linearGradient>
<linearGradient id="paint7_linear_588_2610" x1="169.573" y1="47.4411" x2="-17.6009" y2="124.264" gradientUnits="userSpaceOnUse">
<stop stop-color="#FA5560"/>
<stop offset="0.393444" stop-color="#B14BF4"/>
<stop offset="1" stop-color="#4D91FF"/>
</linearGradient>
<linearGradient id="paint8_linear_588_2610" x1="169.573" y1="47.4411" x2="-17.6009" y2="124.264" gradientUnits="userSpaceOnUse">
<stop stop-color="#FA5560"/>
<stop offset="0.393444" stop-color="#B14BF4"/>
<stop offset="1" stop-color="#4D91FF"/>
</linearGradient>
<linearGradient id="paint9_linear_588_2610" x1="169.573" y1="47.4411" x2="-17.6009" y2="124.264" gradientUnits="userSpaceOnUse">
<stop stop-color="#FA5560"/>
<stop offset="0.393444" stop-color="#B14BF4"/>
<stop offset="1" stop-color="#4D91FF"/>
</linearGradient>
<linearGradient id="paint10_linear_588_2610" x1="169.573" y1="47.4411" x2="-17.6009" y2="124.264" gradientUnits="userSpaceOnUse">
<stop stop-color="#FA5560"/>
<stop offset="0.393444" stop-color="#B14BF4"/>
<stop offset="1" stop-color="#4D91FF"/>
</linearGradient>
<linearGradient id="paint11_linear_588_2610" x1="169.573" y1="47.4411" x2="-17.6009" y2="124.264" gradientUnits="userSpaceOnUse">
<stop stop-color="#FA5560"/>
<stop offset="0.393444" stop-color="#B14BF4"/>
<stop offset="1" stop-color="#4D91FF"/>
</linearGradient>
<linearGradient id="paint12_linear_588_2610" x1="169.573" y1="47.4411" x2="-17.6009" y2="124.264" gradientUnits="userSpaceOnUse">
<stop stop-color="#FA5560"/>
<stop offset="0.393444" stop-color="#B14BF4"/>
<stop offset="1" stop-color="#4D91FF"/>
</linearGradient>
<linearGradient id="paint13_linear_588_2610" x1="169.573" y1="47.4411" x2="-17.6009" y2="124.264" gradientUnits="userSpaceOnUse">
<stop stop-color="#FA5560"/>
<stop offset="0.393444" stop-color="#B14BF4"/>
<stop offset="1" stop-color="#4D91FF"/>
</linearGradient>
</defs>
</svg>
